
<svg width="1197px" height="249px" viewBox="0 0 1197 249" version="1.1" xmlns="http://www.w3.org/2000/svg" xmlns:xlink="http://www.w3.org/1999/xlink">
    <!-- Generator: Sketch 49.1 (51147) - http://www.bohemiancoding.com/sketch -->
    <desc>Created with Sketch.</desc>
    <defs></defs>
    <g id="FE-Engineering-Exercise" stroke="none" stroke-width="1" fill="none" fill-rule="evenodd" opacity="0.100000001">
        <g id="restaurant-list-desktop" transform="translate(-14.000000, -60.000000)" fill="#2E3333">
            <g id="header" transform="translate(0.000000, 60.000000)">
                <g id="header-bg">
                    <path d="M507.872288,340.341273 L406.781698,334.937145 L413.574266,322.725364 L400.242318,307.286578 L377.396683,309.400708 L366.744935,320.208963 L373.777902,333.479467 L294.07009,330.470175 L289.49994,443.666205 L351.668811,472.062741 L352.262138,368.285807 L514.855385,351.542958 L513.768472,346.713502 L507.871009,340.342378 L507.872288,340.341273 Z M364.00975,413.440665 L518.204356,393.301724 L514.854106,361.120089 L364.578781,379.785879 L364.00975,413.440665 Z M367.574825,473.454111 L518.205634,435.067122 L518.205634,407.003233 L364.00975,427.411827 L367.574825,473.454111 Z M641.979461,166.207901 L616.023976,164.671758 L511.930949,158.143705 L511.994885,158.521662 L505.553966,158.1426 L505.553966,173.710687 L514.603477,174.402504 L533.410909,288.778822 L616.034206,285.209224 L632.725355,183.443643 L641.979461,184.150931 L641.979461,166.205691 L641.979461,166.207901 Z M570.693307,147.310031 L594.339421,150.077298 L602.411988,104.390869 L578.042118,75.2284721 L561.411069,85.9427907 L576.395125,110.399508 L570.694585,147.311136 L570.693307,147.310031 Z M447.803077,-54.4153356 L429.453427,-44.6635927 L430.126034,-64.4676762 L407.396763,-70 L396.672128,-56.1216696 L404.084875,-40.1347348 L387.772228,-18.2640422 L399.628531,-5.47979899 L418.150809,-4.83881861 L433.721798,-26.7117215 L455.575145,-24.4163487 L463.273047,-43.2368588 L447.804356,-54.4175459 L447.803077,-54.4153356 Z M390.894865,7.40611694 L418.534426,9.82858073 L415.580579,56.7494497 L397.163157,96.6526887 L327.766953,122.216755 L284.047473,105.586629 L260.33998,55.7128297 L298.128751,16.0494058 L343.658901,15.4714184 L375.006753,-8.72448588 L390.894865,7.40611694 Z M447.803077,829.695534 L429.453427,839.447277 L430.126034,819.643194 L407.396763,814.11087 L396.672128,827.9892 L404.084875,843.976135 L387.772228,865.846828 L399.628531,878.631071 L418.150809,879.272051 L433.721798,857.398043 L455.575145,859.693416 L463.273047,840.872906 L447.803077,829.694429 L447.803077,829.695534 Z M390.894865,891.516987 L418.534426,893.939451 L415.580579,940.86032 L397.163157,980.763559 L327.766953,1006.32762 L284.05003,989.698604 L260.33998,939.8237 L298.128751,900.160276 L343.658901,899.582288 L375.006753,875.386384 L390.894865,891.516987 Z M1047.81491,307.22469 L1021.07684,299.480984 L1042.49926,226.610356 L1117.94382,175.912123 L1198.38561,175.912123 L1201.81514,195.090698 L1117.94637,206.479151 L1070.14777,247.994787 L1047.81746,307.2269 L1047.81491,307.22469 Z M1178.8378,321.434562 C1175.2804,326.754699 1165.96364,327.457567 1156.80032,323.587372 C1150.61898,320.973719 1150.64967,314.326311 1151.32484,310.275978 C1151.69183,308.062385 1152.71481,305.982514 1154.32216,304.228659 C1156.53051,301.812826 1160.21706,298.669812 1164.46881,298.57256 C1171.38669,298.41563 1177.3417,301.094486 1180.70601,305.939414 C1184.078,310.776605 1182.39137,316.104479 1178.83908,321.433457 L1178.8378,321.434562 Z M1157.26322,232.14268 C1159.02785,226.293181 1167.31908,225.421227 1171.46981,225.357129 C1173.04264,225.335026 1174.58989,225.607995 1176.02845,226.167195 C1178.96056,227.314329 1183.93095,229.767737 1184.9373,233.502 C1186.38226,238.877394 1184.98845,243.39078 1180.52571,246.915067 C1176.06298,250.440459 1170.16807,250.112233 1163.9228,248.318593 C1157.67369,246.530479 1154.90014,240.016792 1157.26322,232.143785 L1157.26322,232.14268 Z M1114.72272,284.73954 C1110.28044,287.974281 1105.47373,288.863918 1100.32432,287.209525 C1095.17746,285.551817 1093.04328,281.302559 1092.14561,276.20566 C1091.23772,271.105446 1096.19916,266.47823 1104.55816,264.871359 C1110.77019,263.68223 1115.01554,269.109565 1116.79041,271.9774 C1117.46557,273.068172 1117.84919,274.261721 1117.91568,275.493951 C1118.05634,278.013667 1117.81339,282.493899 1114.724,284.740645 L1114.72272,284.73954 Z M1125.14174,216.635375 L1080.89798,255.584879 L1060.60979,310.005219 L1230.45467,359.186096 L1202.97495,205.494473 L1125.14174,216.63427 L1125.14174,216.635375 Z M26.7380619,307.22469 L0,299.480984 L21.4211389,226.610356 L96.8656943,175.912123 L177.308771,175.912123 L180.735744,195.090698 L96.8682517,206.479151 L49.0696503,247.994787 L26.7380619,307.2269 L26.7380619,307.22469 Z M157.760959,321.434562 C154.202278,326.754699 144.886793,327.457567 135.722198,323.587372 C129.540859,320.973719 129.571548,314.326311 130.249271,310.275978 C130.613706,308.062385 131.637962,305.982514 133.244036,304.228659 C135.452388,301.812826 139.138941,298.669812 143.390689,298.57256 C150.308571,298.41563 156.263576,301.094486 159.627892,305.939414 C162.99988,310.776605 161.313247,316.104479 157.760959,321.433457 L157.760959,321.434562 Z M136.185095,232.14268 C137.94973,226.293181 146.240959,225.421227 150.391688,225.357129 C151.964515,225.335026 153.511768,225.607995 154.95033,226.167195 C157.882438,227.314329 162.852827,229.767737 163.859181,233.502 C165.304136,238.877394 163.907772,243.39078 159.447592,246.915067 C154.984855,250.440459 149.087393,250.112233 142.843397,248.318593 C136.595564,246.530479 133.820739,240.016792 136.183816,232.143785 L136.185095,232.14268 Z M93.6458741,284.738435 C89.2023177,287.973176 84.3956044,288.862812 79.2474725,287.20842 C74.0993407,285.550712 71.9651548,281.301454 71.0674925,276.204555 C70.1596004,271.10434 75.121039,266.477125 83.4813187,264.870254 C89.6933467,263.681125 93.9387013,269.10846 95.7135664,271.976295 C96.3874525,273.067067 96.7723477,274.260616 96.8388412,275.492846 C96.9769431,278.012562 96.733986,282.492794 93.6458741,284.73954 L93.6458741,284.738435 Z M104.063616,216.63427 L59.8198601,255.583774 L39.5316683,310.004114 L209.377822,359.184991 L181.898102,205.493368 L104.064895,216.633165 L104.063616,216.63427 Z M995.464056,1.66381684 L954.19972,-9.01845274 L952.582138,25.8873495 L945.52999,27.6588867 L935.057263,-13.9716839 L910.273087,-20.3870134 L900.224895,12.4908596 L893.514166,13.8413389 L891.723956,-25.1888406 L863.841439,-32.4087109 L847.051828,0.25697542 L842.160719,1.02836215 L843.495704,-35.0190483 L801.446234,-36.8458424 L775.076444,-22.0657189 L773.160919,1.41184524 L784.004476,14.8558562 L965.759361,63.7107177 L1009.08627,51.3961584 L1017.20615,26.6012691 L995.462777,1.66492198 L995.464056,1.66381684 Z M1008.9584,60.3709889 L952.882637,80.0501917 L926.58957,62.0364327 L896.140659,65.5673505 L871.63013,43.7253915 L837.09954,45.0559783 L811.307732,27.3671301 L770.882238,24.1003404 L769.271049,38.0527151 L806.085435,43.2877566 L828.514206,59.4183594 L866.139301,61.8386129 L892.257183,80.3054787 L920.674206,79.5871386 L949.358482,95.9564514 L1014.75996,72.9165221 L1008.9584,60.3709889 Z M773.635325,46.799887 L774.636563,62.0397482 L780.78977,71.9241077 L937.550769,122.548296 L966.488232,125.88913 L993.957722,118.780879 L1007.1439,103.820618 L1009.0965,87.2026486 L965.296464,102.506608 L945.734585,104.291407 L773.635325,46.7987819 L773.635325,46.799887 Z M995.464056,885.774687 L954.202278,875.093522 L952.584695,909.999325 L945.532547,911.770862 L935.05982,870.140291 L910.275644,863.724962 L900.227453,896.602835 L893.516723,897.953314 L891.726513,858.923135 L863.843996,851.703264 L847.054386,884.368951 L842.163277,885.140337 L843.498262,849.092927 L801.446234,847.265028 L775.073886,862.045151 L773.158362,885.522715 L784.001918,898.966726 L965.759361,947.821588 L1009.08627,935.507028 L1017.20615,910.712139 L995.462777,885.775792 L995.464056,885.774687 Z M1008.9584,944.481859 L952.882637,964.161062 L926.58957,946.147303 L896.140659,949.67822 L871.63013,927.836261 L837.09954,929.166848 L811.307732,911.478 L770.882238,908.21121 L769.271049,922.163585 L806.085435,927.398627 L828.514206,943.529229 L866.139301,945.949483 L892.257183,964.416349 L920.674206,963.698009 L949.358482,980.067321 L1014.75868,957.027392 L1008.95712,944.481859 L1008.9584,944.481859 Z M773.635325,930.910757 L774.636563,946.150618 L780.78977,956.034978 L937.550769,1006.65917 L966.488232,1010 L993.957722,1002.89175 L1007.1439,987.931488 L1009.0965,971.313519 L965.296464,986.617478 L945.734585,988.402277 L773.635325,930.910757 Z M632.064256,558.357488 L709.677522,543.820495 L725.791968,533.25537 L716.017423,509.877268 L692.028611,509.110302 L709.796444,496.080718 L706.686593,476.150649 L680.038042,475.318479 L677.714605,462.350783 L636.433646,454.686647 L636.433646,439.738543 L617.000919,448.936611 L610.393766,463.729996 L620.055784,480.052893 L608.058821,480.052893 L585.954845,488.540358 L585.954845,505.788255 L606.695704,516.393165 L578.755644,524.288275 L579.727473,550.186093 L591.163077,560.662807 L582.905095,561.308208 L593.624615,643.994677 L612.677562,643.994677 L612.677562,575.798785 L625.793407,573.710073 L622.491748,643.993572 L643.987053,643.993572 L650.426693,574.607446 L661.432647,574.136657 L657.483956,643.992467 L678.697942,643.992467 L685.142697,574.607446 L696.142258,574.136657 L692.193566,643.992467 L711.621179,643.992467 L729.088511,553.039561 L632.061698,558.357488 L632.064256,558.357488 Z M1139.41483,565.567412 L1151.11896,515.469269 L1150.67652,491.430295 L1129.65179,488.304963 L1130.57758,477.347514 L1163.94837,480.018634 L1198.07744,482.295219 L1193.18505,495.908316 L1165.35369,492.476861 L1164.56088,510.642024 L1147.68432,567.495879 L1139.41355,565.567412 L1139.41483,565.567412 Z M1247.65475,488.892897 L1230.58382,458.302661 L1120.13682,455.891248 L1094.59181,483.230167 L1109.31245,536.177356 L1106.90845,605.303775 L1141.79453,621.748237 L1198.38306,583.667372 L1250.32216,518.917302 L1247.65602,488.890686 L1247.65475,488.892897 Z M1218.56,604.766678 L1164.78082,630.317482 L1159.27209,620.693935 L1212.30322,589.131177 L1261.42657,524.08272 L1260.44452,497.16928 L1250.77355,471.410709 L1259.46118,466.669665 L1278.79544,501.218507 L1279.32739,533.468662 L1218.55872,604.767783 L1218.56,604.766678 Z M118.337982,565.567412 L130.040839,515.469269 L129.598402,491.430295 L108.572388,488.304963 L109.499461,477.347514 L142.87025,480.018634 L176.999321,482.295219 L172.106933,495.908316 L144.274286,492.476861 L143.481479,510.642024 L126.607473,567.495879 L118.334146,565.567412 L118.337982,565.567412 Z M226.577902,488.892897 L209.506973,458.302661 L99.0574226,455.891248 L73.5124076,483.230167 L88.233047,536.177356 L85.8290509,605.303775 L120.716404,621.748237 L177.303656,583.667372 L229.242757,518.917302 L226.579181,488.890686 L226.577902,488.892897 Z M197.480599,604.764467 L143.701419,630.315271 L138.192687,620.691725 L191.223816,589.128967 L240.345894,524.080509 L239.363836,497.167069 L229.694146,471.408499 L238.381778,466.667455 L257.713487,501.216297 L258.246713,533.466451 L197.478042,604.765572 L197.480599,604.764467 Z M854.932587,208.755737 L732.093506,280.589745 L735.300539,285.25343 L861.378621,218.118471 L854.933866,208.755737 L854.932587,208.755737 Z M897.1598,250.255901 L751.478921,288.334556 L752.595245,293.863565 L899.714685,261.820071 L897.157243,250.255901 L897.1598,250.255901 Z M891.261059,328.943979 L701.524396,327.883046 L721.024895,395.031266 L751.861259,406.007503 L749.666973,421.150112 L834.272288,423.360389 L834.845155,407.028651 L874.185015,390.842791 L891.261059,328.943979 Z M841.394765,293.243582 L824.881359,307.634696 L854.822617,321.501975 C854.822617,321.501975 866.848991,299.063242 864.681558,299.793738 C862.512847,300.526445 841.393487,293.243582 841.393487,293.243582 L841.394765,293.243582 Z M810.068651,290.204451 L778.453546,298.212285 L783.374066,318.1092 C783.374066,318.1092 810.444595,320.758217 810.815425,319.360217 C811.19009,317.962217 810.06993,290.204451 810.06993,290.204451 L810.068651,290.204451 Z M740.714645,295.647258 L727.362238,315.329776 L749.117123,319.098299 L755.962118,311.517048 L740.713367,295.647258 L740.714645,295.647258 Z M1012.30098,595.381841 L1004.21307,595.381841 L1008.25638,584.470807 L1015.8392,584.470807 L1012.30098,595.382946 L1012.30098,595.381841 Z M999.142937,614.03658 L981.263856,616.050143 L978.114366,609.72654 L999.475405,606.996847 L999.142937,614.03658 Z M976.251269,641.897124 L967.356484,636.139352 L971.902338,630.90431 L982.011908,635.266292 L976.251269,641.897124 Z M949.353367,567.742325 L940.458581,561.986763 L945.008272,556.753932 L955.119121,561.112598 L949.352088,567.74122 L949.353367,567.742325 Z M922.423497,628.602307 L889.754725,618.615169 L891.570509,601.985044 L928.129151,576.343618 L953.984895,587.114299 L955.119121,609.374 L922.422218,628.603412 L922.423497,628.602307 Z M941.312767,651.847792 L938.33974,641.498169 L945.302378,637.952884 L947.841918,648.52685 L941.312767,651.848897 L941.312767,651.847792 Z M912.251269,663.581048 L902.763157,663.581048 L902.763157,655.237252 L912.251269,653.491133 L912.251269,663.581048 Z M886.996523,648.193098 L878.099181,642.435326 L883.971069,635.680719 L892.755884,641.565582 L886.996523,648.191993 L886.996523,648.193098 Z M871.14038,596.901406 L867.017782,592.487483 L873.710609,587.83927 L877.831928,592.253193 L871.14038,596.901406 Z M870.072647,620.418755 L863.755764,618.868246 L866.104775,611.736787 L872.421658,613.286191 L870.072647,620.41765 L870.072647,620.418755 Z M844.012308,645.798263 L842.255345,639.438191 L854.597562,640.034965 L856.477283,646.822727 L844.013586,645.799368 L844.012308,645.798263 Z M843.209271,602.014883 L854.900619,612.060592 L848.264056,618.496919 L836.914126,606.499535 L843.207992,602.014883 L843.209271,602.014883 Z M861.006513,565.946474 L866.223696,571.364969 L854.606513,581.480302 L847.266653,580.319907 L861.006513,565.94758 L861.006513,565.946474 Z M887.747133,564.571682 L906.5405,569.625481 L904.445954,576.411032 L883.862378,570.77151 L887.745854,564.571682 L887.747133,564.571682 Z M921.888991,548.01118 L926.905415,552.915785 L915.682078,557.387176 L910.331908,552.154345 L921.891548,548.010075 L921.888991,548.01118 Z M969.170989,559.919049 L975.495544,559.919049 L975.495544,554.462979 L969.170989,554.462979 L969.170989,559.919049 Z M984.735584,572.280024 L991.085714,575.854042 L981.656424,582.746791 L974.879201,578.934063 L984.735584,572.278919 L984.735584,572.280024 Z M1021.29167,542.361712 L904.823177,528.475646 L834.677642,565.398326 L805.550929,627.449647 L855.484995,684.115628 L941.082597,680.783635 L1034.29499,630.993827 L1037.92655,585.157099 L1021.29039,542.362817 L1021.29167,542.361712 Z M405.728032,609.284484 L381.828731,622.866637 L371.784376,646.953133 L349.636923,653.440296 L345.527113,674.114124 L310.932587,683.037013 L305.68983,699.91911 L290.88991,689.724207 L300.158082,666.120657 L332.545534,659.058821 L335.365115,640.816298 L360.768192,630.162762 L368.647672,610.029348 L392.798881,599.004485 L369.449431,591.23315 L325.036883,620.339185 L276.7204,669.182996 L271.843357,703.287572 L254.849151,715.028565 L249.334026,732.383661 L265.401159,745.827672 L290.553606,743.028356 L324.552248,708.760219 L380.68044,671.288285 L420.212108,628.481847 L441.037363,611.078124 L457.309091,585.814656 L440.225375,571.920854 L418.107333,576.44087 L405.729311,609.285589 L405.728032,609.284484 Z M474.062897,639.708949 L463.812667,678.446267 L418.441079,716.90509 L368.152807,758.163229 L339.51968,764.338743 L312.84044,755.356177 L311.53998,738.513865 L335.615744,716.621069 L400.04028,671.144617 L427.207992,642.236401 L442.337822,625.814042 L459.907453,621.603464 L474.062897,639.707844 L474.062897,639.708949 Z M711.178741,777.862324 C707.802917,782.196678 702.327433,782.945962 699.401718,780.819675 C696.46961,778.697809 693.60016,772.299057 701.54997,768.823396 C707.406513,766.259474 714.554565,773.534602 711.178741,777.863429 L711.178741,777.862324 Z M721.495465,730.522608 C727.726673,727.796231 735.331229,735.536622 731.738022,740.142839 C728.148651,744.751267 722.322797,745.544757 719.206553,743.284748 C716.091588,741.02695 713.036723,734.222612 721.495465,730.520397 L721.495465,730.522608 Z M754.992847,753.94602 C760.152488,751.687117 764.174066,758.435093 761.204875,762.245611 C758.233127,766.058339 755.680799,766.374409 753.102897,764.505619 C750.524995,762.63462 747.996963,757.005044 754.992847,753.944915 L754.992847,753.94602 Z M681.977862,750.884786 C678.502298,755.347336 675.513926,755.719768 672.497423,753.531593 C669.47964,751.343419 666.521958,744.752372 674.70961,741.170618 C680.747732,738.529337 685.455984,746.425552 681.979141,750.884786 L681.977862,750.884786 Z M658.528671,798.049891 C655.035205,799.080985 647.88971,797.475219 649.398601,789.069535 C650.511089,782.877443 660.834206,782.328189 662.658941,787.626224 C664.478561,792.924258 662.024695,797.019902 658.528671,798.049891 Z M795.461818,766.970078 L776.178701,721.414056 L698.452907,701.632075 L687.541578,709.321629 L651.081399,698.179622 L587.673447,727.487897 L563.441678,772.96435 L559.244915,833.926005 C567.742018,842.728434 592.881678,846.410755 592.881678,846.410755 L572.601159,814.873416 L596.662857,801.965397 L581.455025,773.846251 L603.878681,764.060248 L602.832687,736.785428 L638.061459,732.030017 L644.646873,708.805529 L679.846234,714.746754 L619.6402,757.17634 L603.84032,842.86105 L795.461818,766.973394 L795.461818,766.970078 Z M1158.07137,781.513702 L1176.60004,760.832139 L1177.62302,737.107023 L1194.68372,721.395268 C1194.68372,721.395268 1200.93666,704.94307 1201.00827,704.791666 L1184.46929,699.257132 L1179.19584,713.480266 L1161.89475,730.985661 L1160.60068,753.424395 L1145.34809,772.346578 L1158.07137,781.514807 L1158.07137,781.513702 Z M1206.28683,746.334931 L1192.07001,739.626739 L1176.79441,768.9748 L1161.14286,787.501343 L1137.13487,786.528821 L1149.5845,755.805968 L1152.17391,725.414657 L1134.37027,723.533711 L1132.04939,753.657579 L1119.72252,785.821532 L1117.81211,785.744173 L1120.97694,750.904679 L1129.45742,718.336245 L1111.4786,718.120743 L1104.01726,749.145298 L1103.07101,772.535556 L1096.52396,760.581272 L1101.46877,738.019868 L1083.39021,734.781812 L1078.361,760.560275 L1088.71097,777.236816 C1088.71097,777.236816 1088.62146,780.204113 1088.49359,784.557254 L1076.52476,784.070993 L1096.69019,870.274013 L1173.35976,874.420493 L1178.96056,868.724609 L1187.39117,788.564486 L1181.03337,788.308094 C1192.1787,769.728504 1205.96843,746.765935 1206.29067,746.334931 L1206.28683,746.334931 Z M137.617263,781.513702 L156.145934,760.832139 L157.168911,737.107023 L174.22961,721.395268 C174.22961,721.395268 180.482557,704.94307 180.552887,704.791666 L164.013906,699.257132 L158.741738,713.480266 L141.440639,730.985661 L140.146573,753.424395 L124.891429,772.346578 L137.617263,781.514807 L137.617263,781.513702 Z M185.832727,746.334931 L171.613347,739.626739 L156.339021,768.9748 L140.687473,787.501343 L116.679481,786.528821 L129.129111,755.805968 L131.715964,725.414657 L113.912328,723.533711 L111.59017,753.657579 L99.2632967,785.821532 L97.3528871,785.744173 L100.517722,750.904679 L108.998202,718.336245 L91.0193806,718.120743 L83.558042,749.145298 L82.6117882,772.535556 L76.0647353,760.581272 L81.0095504,738.019868 L62.930989,734.781812 L57.9017782,760.560275 L68.2504695,777.236816 L68.0305295,784.557254 L56.0655345,784.070993 L76.230969,870.274013 L152.899261,874.420493 L158.50006,868.724609 L166.931948,788.564486 L160.572867,788.308094 C171.718202,769.728504 185.507932,746.765935 185.831449,746.334931 L185.832727,746.334931 Z" id="icons-bg"></path>
                </g>
            </g>
        </g>
    </g>
</svg>